<?xml version="1.0" encoding="UTF-8" standalone="no"?>
<!-- Created with Inkscape (http://www.inkscape.org/) -->

<svg
   width="57.39917"
   height="21.405029"
   viewBox="0 0 57.39917 21.405029"
   version="1.1"
   id="svg1"
   inkscape:version="1.3.2 (091e20e, 2023-11-25, custom)"
   sodipodi:docname="simple font.svg"
   xml:space="preserve"
   xmlns:inkscape="http://www.inkscape.org/namespaces/inkscape"
   xmlns:sodipodi="http://sodipodi.sourceforge.net/DTD/sodipodi-0.dtd"
   xmlns:xlink="http://www.w3.org/1999/xlink"
   xmlns="http://www.w3.org/2000/svg"
   xmlns:svg="http://www.w3.org/2000/svg"><sodipodi:namedview
     id="namedview1"
     pagecolor="#d1d1d1"
     bordercolor="#000000"
     borderopacity="0.25"
     inkscape:showpageshadow="2"
     inkscape:pageopacity="0.0"
     inkscape:pagecheckerboard="0"
     inkscape:deskcolor="#d1d1d1"
     inkscape:document-units="px"
     showborder="false"
     inkscape:zoom="4"
     inkscape:cx="1641.75"
     inkscape:cy="-807.125"
     inkscape:window-width="1280"
     inkscape:window-height="953"
     inkscape:window-x="1912"
     inkscape:window-y="-8"
     inkscape:window-maximized="1"
     inkscape:current-layer="layer1"
     showguides="true" /><defs
     id="defs1"><linearGradient
       id="linearGradient36"
       inkscape:collect="always"><stop
         style="stop-color:#6842a3;stop-opacity:1;"
         offset="0"
         id="stop37" /><stop
         style="stop-color:#b71cc0;stop-opacity:1;"
         offset="1"
         id="stop36" /></linearGradient><linearGradient
       id="linearGradient26"
       inkscape:collect="always"><stop
         style="stop-color:#6643a2;stop-opacity:1;"
         offset="0"
         id="stop26" /><stop
         style="stop-color:#b71bc0;stop-opacity:1;"
         offset="1"
         id="stop27" /></linearGradient><linearGradient
       id="linearGradient22"
       inkscape:collect="always"><stop
         style="stop-color:#116c83;stop-opacity:1;"
         offset="0"
         id="stop22" /><stop
         style="stop-color:#bc19c2;stop-opacity:1;"
         offset="1"
         id="stop23" /></linearGradient><linearGradient
       inkscape:collect="always"
       xlink:href="#linearGradient22"
       id="linearGradient23"
       x1="1569.25"
       y1="-641.5"
       x2="1626.375"
       y2="-621.375"
       gradientUnits="userSpaceOnUse" /><linearGradient
       inkscape:collect="always"
       xlink:href="#linearGradient22"
       id="linearGradient24"
       gradientUnits="userSpaceOnUse"
       x1="1569.25"
       y1="-641.5"
       x2="1626.375"
       y2="-621.375" /><linearGradient
       inkscape:collect="always"
       xlink:href="#linearGradient22"
       id="linearGradient25"
       gradientUnits="userSpaceOnUse"
       x1="1569.25"
       y1="-641.5"
       x2="1626.375"
       y2="-621.375" /><linearGradient
       inkscape:collect="always"
       xlink:href="#linearGradient26"
       id="linearGradient27"
       x1="93.077934"
       y1="51.203884"
       x2="95.883583"
       y2="43.258823"
       gradientUnits="userSpaceOnUse" /><linearGradient
       inkscape:collect="always"
       xlink:href="#linearGradient26"
       id="linearGradient30"
       gradientUnits="userSpaceOnUse"
       x1="93.077934"
       y1="51.203884"
       x2="95.883583"
       y2="43.258823" /><linearGradient
       inkscape:collect="always"
       xlink:href="#linearGradient36"
       id="linearGradient37"
       x1="95.047386"
       y1="49.693481"
       x2="93.756172"
       y2="41.047859"
       gradientUnits="userSpaceOnUse" /><linearGradient
       inkscape:collect="always"
       xlink:href="#linearGradient36"
       id="linearGradient39"
       gradientUnits="userSpaceOnUse"
       x1="95.047386"
       y1="49.693481"
       x2="93.756172"
       y2="41.047859" /><linearGradient
       inkscape:collect="always"
       xlink:href="#linearGradient36"
       id="linearGradient40"
       gradientUnits="userSpaceOnUse"
       x1="95.047386"
       y1="49.693481"
       x2="93.756172"
       y2="41.047859" /><linearGradient
       inkscape:collect="always"
       xlink:href="#linearGradient26"
       id="linearGradient41"
       gradientUnits="userSpaceOnUse"
       x1="93.077934"
       y1="51.203884"
       x2="95.883583"
       y2="43.258823" /></defs><g
     inkscape:groupmode="layer"
     id="layer2"
     inkscape:label="logo 1"
     style="display:inline"
     transform="translate(-1570.3964,602.98303)"><g
       id="g26"
       transform="matrix(0.52037985,-2.1050036,1.8826762,0.38547107,1477.8365,-420.09232)"
       style="fill:url(#linearGradient27)"><g
         id="g29"
         style="fill:url(#linearGradient30)"
         transform="matrix(-0.84606543,-0.56417541,0.44313171,-0.88645152,151.07613,142.25678)"><g
           id="g35"
           style="fill:url(#linearGradient37);fill-opacity:1"><path
             style="fill:url(#linearGradient39);fill-opacity:1;stroke:none;stroke-width:0.00948121;stroke-miterlimit:4;stroke-dasharray:none;stroke-opacity:1"
             d="m 94.398695,41.944624 c -0.08489,0.02788 -0.50162,0.287813 -0.800938,0.499619 -0.261838,0.185289 -0.271512,0.186134 -0.45034,0.03948 -0.03848,-0.03158 -0.104994,-0.09116 -0.147802,-0.132357 -0.04279,-0.04126 -0.08118,-0.0716 -0.08535,-0.06753 -0.0041,0.0043 0.02756,0.05612 0.07046,0.115762 0.07213,0.100217 0.166947,0.264341 0.157076,0.271974 -0.0022,0.0017 -0.09579,7.32e-4 -0.207631,-0.0031 -0.223334,-0.007 -0.495993,0.01295 -0.68529,0.0504 -0.126374,0.02493 -0.311815,0.08771 -0.365346,0.123565 l -0.03708,0.02485 0.07832,-0.0086 c 0.214969,-0.02342 0.576543,-0.03667 0.629572,-0.02316 0.100009,0.02563 0.135971,0.11136 0.08556,0.203797 -0.02277,0.04183 -0.155226,0.178744 -0.173251,0.179195 -0.0061,9.8e-5 -0.01776,-0.0089 -0.026,-0.02014 -0.01368,-0.0185 -0.01515,-0.01745 -0.01685,0.01236 l -0.0019,0.03276 -0.148677,0.0037 c -0.341186,0.0085 -0.687612,0.07811 -0.878518,0.176467 -0.03025,0.01562 -0.09937,0.07296 -0.153542,0.127395 -0.333902,0.33571 -0.631267,0.798357 -0.771381,1.200141 l -0.02997,0.08584 0.05793,0.09786 c 0.228788,0.386319 0.459015,0.686799 0.661474,0.863316 0.06009,0.05242 0.125793,0.123623 0.151936,0.164744 0.04077,0.06406 0.04529,0.07913 0.0397,0.130019 l -0.0067,0.05766 0.163351,0.09262 c 0.17589,0.09966 0.497768,0.269875 0.509858,0.269598 0.0043,-2.04e-4 0.01564,-0.11144 0.02579,-0.247458 0.02043,-0.274225 0.04517,-0.392923 0.127114,-0.608769 0.118235,-0.311428 0.288633,-0.540513 0.575196,-0.773313 0.141594,-0.115023 0.358295,-0.32767 0.417152,-0.409345 0.08364,-0.116064 0.083,-0.113593 0.09863,-0.387271 0.0096,-0.166982 0.0207,-0.271284 0.03317,-0.309246 0.02076,-0.06326 0.06447,-0.105383 0.110754,-0.106543 0.04495,-0.0011 0.100718,0.06439 0.12882,0.151523 l 0.02461,0.07661 0.01856,-0.08371 c 0.02348,-0.10606 0.03655,-0.349557 0.02377,-0.441509 -0.01004,-0.0722 -0.06699,-0.253297 -0.07959,-0.252989 -0.02791,7.84e-4 -0.329556,0.247949 -0.499858,0.409711 -0.562443,0.534249 -1.034077,1.344482 -1.207482,2.074359 -0.01213,0.051 -0.03391,0.116943 -0.04831,0.146621 -0.05584,0.114646 -0.18052,0.138544 -0.270356,0.0518 -0.02943,-0.02839 -0.03011,-0.03172 -0.01043,-0.05256 0.01953,-0.02079 0.01915,-0.02211 -0.0051,-0.02149 -0.02321,5.11e-4 -0.02548,-0.006 -0.02251,-0.06193 0.0043,-0.08285 0.04113,-0.283431 0.08079,-0.439174 0.232161,-0.911568 0.899662,-1.80077 1.924045,-2.563123 0.293621,-0.21852 0.692327,-0.471799 0.985543,-0.626072 0.05875,-0.03095 0.107028,-0.05956 0.107305,-0.06371 10e-4,-0.02244 -0.112231,-0.04511 -0.155642,-0.0309 z"
             id="path43595-4-85" /><path
             style="fill:url(#linearGradient40);fill-opacity:1;stroke:none;stroke-width:0.00948121;stroke-miterlimit:4;stroke-dasharray:none;stroke-opacity:1"
             d="m 90.329927,45.674706 c -0.02043,0.448565 0.08649,1.110181 0.247608,1.53134 0.03924,0.102571 0.03986,0.103295 0.166908,0.204718 0.895086,0.714328 1.680983,1.070169 2.546092,1.15283 0.059,0.006 0.269187,0.0085 0.466984,0.0065 0.197813,-0.0024 0.385954,0.0011 0.418142,0.0069 0.116787,0.02135 0.170893,0.07897 0.166255,0.176952 -0.0029,0.0621 -0.04927,0.136457 -0.128595,0.206277 -0.05209,0.04585 -0.05369,0.04639 -0.07703,0.0257 -0.02324,-0.02061 -0.02371,-0.02056 -0.01856,0.0046 0.0041,0.02247 -9.46e-4,0.02644 -0.04462,0.03341 -0.226859,0.03605 -0.743632,0.0352 -1.086929,-0.0017 -0.682612,-0.07343 -1.314557,-0.284462 -1.861118,-0.621482 -0.06003,-0.03701 -0.111983,-0.06453 -0.115472,-0.06115 -0.0081,0.0077 0.0459,0.09671 0.157416,0.258641 0.383178,0.556189 0.909905,0.996171 1.493766,1.247763 0.122755,0.05289 0.331945,0.128288 0.354401,0.127728 0.0061,-9.8e-5 -0.0083,-0.02787 -0.03277,-0.06164 -0.06073,-0.08359 -0.100258,-0.180649 -0.09763,-0.23981 0.0038,-0.0844 0.08104,-0.149362 0.180641,-0.151831 0.03946,-9.83e-4 0.04194,0.0014 0.03366,0.02886 -0.0096,0.03232 0.0033,0.03867 0.02883,0.01414 0.01276,-0.01225 0.02041,-0.0095 0.03857,0.01389 0.163725,0.211019 0.306598,0.342283 0.443671,0.407665 l 0.07362,0.03509 0.17093,-0.01255 c 0.418878,-0.03 0.685364,-0.101771 1.027752,-0.276905 0.523108,-0.267576 0.841793,-0.61075 0.92804,-0.999348 0.02871,-0.129211 0.03143,-0.184042 0.01622,-0.326951 -0.04915,-0.462868 -0.343165,-0.881651 -0.770932,-1.097915 -0.277976,-0.140539 -0.578644,-0.209198 -0.992043,-0.226607 -0.206186,-0.0087 -0.496538,0.0091 -0.694164,0.04333 l -0.08995,0.01542 -0.162286,0.172201 c -0.244316,0.259263 -0.477163,0.474697 -0.555113,0.513611 -0.204629,0.102156 -0.232402,-0.08388 -0.05311,-0.355906 0.03446,-0.05228 0.06108,-0.09684 0.05905,-0.0989 -0.0024,-0.0023 -0.02709,0.0117 -0.05569,0.03064 -0.07082,0.04683 -0.18165,0.05743 -0.238132,0.02259 -0.0457,-0.02818 -0.07018,-0.0856 -0.06651,-0.155963 0.0056,-0.107246 0.08783,-0.208853 0.245845,-0.303887 l 0.08438,-0.05072 -0.10425,-0.03566 c -0.285722,-0.09774 -0.670371,-0.287332 -1.169048,-0.57607 -0.12188,-0.07058 -0.26007,-0.150075 -0.3071,-0.176703 -0.140924,-0.07976 -0.311897,-0.215715 -0.472554,-0.375788 l -0.151615,-0.151054 z"
             id="path43634-5-40" /></g><g
           id="g40"
           style="fill:url(#linearGradient41)"
           transform="matrix(-0.85482376,-0.54785824,0.43031538,-0.89404179,123.63276,158.13504)"><path
             style="display:inline;fill:#f2fafd;fill-opacity:1;stroke:none;stroke-width:0.00948121;stroke-miterlimit:4;stroke-dasharray:none;stroke-opacity:1"
             d="m 81.682416,65.514666 c 0.06411,-0.0701 0.326163,-0.519654 0.503651,-0.864054 0.155262,-0.30128 0.163564,-0.307271 0.386434,-0.27901 0.04797,0.0061 0.133012,0.02092 0.188972,0.03291 0.05596,0.01205 0.103331,0.01714 0.105315,0.01138 0.0019,-0.0059 -0.04868,-0.03307 -0.112612,-0.0608 -0.107452,-0.04657 -0.262558,-0.135542 -0.256982,-0.147455 0.0013,-0.0026 0.08547,-0.05278 0.187278,-0.110387 0.203018,-0.11558 0.438668,-0.281136 0.592185,-0.416278 0.102517,-0.09016 0.24175,-0.244899 0.274358,-0.304761 l 0.02258,-0.04148 -0.06647,0.05 c -0.182506,0.137103 -0.500664,0.34531 -0.553929,0.362616 -0.100534,0.03246 -0.169396,-0.02136 -0.163776,-0.127993 0.0025,-0.04822 0.06258,-0.237627 0.07853,-0.247827 0.0054,-0.0034 0.01972,-0.002 0.03189,0.0031 0.02016,0.0084 0.02103,0.0067 0.0098,-0.01976 l -0.01229,-0.02911 0.131568,-0.08412 c 0.301919,-0.193055 0.58241,-0.441286 0.711324,-0.629477 0.02041,-0.02985 0.05779,-0.1166 0.08303,-0.192724 0.155475,-0.469367 0.223944,-1.027578 0.177607,-1.448036 l -0.0099,-0.08984 -0.09373,-0.05228 c -0.370104,-0.206361 -0.70479,-0.338406 -0.961595,-0.379382 -0.07623,-0.01219 -0.165526,-0.03741 -0.206524,-0.0584 -0.06391,-0.03268 -0.0744,-0.04313 -0.09116,-0.08976 l -0.01865,-0.05303 -0.185901,0.0096 c -0.200144,0.01039 -0.561204,0.03983 -0.571914,0.04665 -0.0038,0.0025 0.03365,0.103976 0.08273,0.226016 0.09897,0.24603 0.127574,0.361175 0.146491,0.590687 0.02729,0.331147 -0.02735,0.620157 -0.184437,0.975597 -0.07762,0.17562 -0.180758,0.47576 -0.198542,0.577769 -0.02527,0.144959 -0.02576,0.142496 0.07724,0.38545 0.0628,0.148271 0.09747,0.243657 0.102537,0.282964 0.0085,0.06548 -0.01267,0.125374 -0.05363,0.151567 -0.03978,0.02544 -0.117739,-3.26e-4 -0.180168,-0.05966 l -0.05481,-0.05223 0.01922,0.08181 c 0.02435,0.10363 0.116758,0.319332 0.167517,0.391145 0.03987,0.05638 0.168311,0.180506 0.179468,0.173379 0.02467,-0.01582 0.189113,-0.391824 0.272457,-0.623112 0.275248,-0.763869 0.351148,-1.714707 0.194321,-2.434338 -0.01094,-0.05029 -0.01967,-0.118632 -0.01941,-0.151908 9.83e-4,-0.128608 0.102424,-0.216962 0.219974,-0.191572 0.03849,0.0083 0.04053,0.01078 0.03182,0.03934 -0.0086,0.02844 -0.0077,0.02937 0.01371,0.01566 0.02057,-0.0131 0.02539,-0.0087 0.04665,0.04079 0.03157,0.07332 0.08437,0.265183 0.115451,0.420189 0.181901,0.907261 -0.03564,2.032385 -0.62705,3.243154 -0.169514,0.34705 -0.418277,0.781088 -0.614904,1.072884 -0.03938,0.0585 -0.07038,0.109296 -0.06885,0.113 0.0087,0.01977 0.119812,-0.02242 0.152604,-0.05827 z"
             id="path43595-4-85-8" /><path
             style="display:inline;fill:#f2fafd;fill-opacity:1;stroke:none;stroke-width:0.00948121;stroke-miterlimit:4;stroke-dasharray:none;stroke-opacity:1"
             d="m 83.731209,60.104177 c -0.173524,-0.39537 -0.552221,-0.903902 -0.876618,-1.176952 -0.07901,-0.0665 -0.07988,-0.06678 -0.237027,-0.08449 -1.107103,-0.124567 -1.963113,-0.0015 -2.773241,0.398703 -0.0554,0.02699 -0.244727,0.139257 -0.420997,0.248698 -0.176114,0.109793 -0.346106,0.20923 -0.377423,0.221768 -0.113725,0.04529 -0.186823,0.02539 -0.224568,-0.06106 -0.02396,-0.05477 -0.01423,-0.143717 0.02695,-0.246712 0.02704,-0.06764 0.02825,-0.06897 0.058,-0.06395 0.02962,0.005 0.03002,0.0047 0.01467,-0.01402 -0.01333,-0.01699 -0.0105,-0.02316 0.02567,-0.05291 0.187754,-0.154397 0.650932,-0.435029 0.974165,-0.590327 0.64274,-0.308748 1.298946,-0.472042 1.932561,-0.480929 0.06959,-9.78e-4 0.127883,-0.0057 0.129564,-0.01049 0.004,-0.01094 -0.08247,-0.05784 -0.251586,-0.135848 -0.581018,-0.267816 -1.240902,-0.35793 -1.871391,-0.255562 -0.132561,0.0215 -0.352145,0.07084 -0.372016,0.08355 -0.0054,0.0034 0.01931,0.01938 0.05571,0.03496 0.09013,0.03854 0.167042,0.100161 0.189985,0.152271 0.03267,0.07438 -0.0087,0.172066 -0.09685,0.228411 -0.03492,0.02233 -0.03817,0.02161 -0.04249,-0.0064 -0.0052,-0.03292 -0.01947,-0.03134 -0.03186,0.0036 -0.0062,0.01744 -0.01422,0.01925 -0.04048,0.0091 -0.23687,-0.09162 -0.420959,-0.126275 -0.57168,-0.107652 l -0.08094,0.01001 -0.147715,0.103815 c -0.362313,0.253757 -0.570281,0.460327 -0.802025,0.796764 -0.354061,0.514016 -0.492715,0.981492 -0.403777,1.361328 0.02955,0.126314 0.05056,0.174764 0.125292,0.288901 0.241958,0.36974 0.684364,0.568395 1.159949,0.52075 0.309051,-0.03096 0.60769,-0.135831 0.985367,-0.346008 0.188367,-0.104822 0.440809,-0.278118 0.603153,-0.415056 l 0.07397,-0.06218 0.0717,-0.235867 c 0.107935,-0.355107 0.224341,-0.666424 0.277511,-0.742199 0.139577,-0.198918 0.244008,-0.05467 0.199767,0.275956 -0.0085,0.06355 -0.01329,0.116214 -0.01059,0.116872 0.0031,6.62e-4 0.01926,-0.02477 0.03677,-0.05656 0.0434,-0.07867 0.138126,-0.148094 0.203609,-0.149002 0.05298,-7.45e-4 0.09946,0.03512 0.12626,0.09739 0.04081,0.09494 0.01066,0.226723 -0.09022,0.394164 l -0.05387,0.08939 0.108616,-0.02621 c 0.297695,-0.07179 0.72325,-0.118854 1.293333,-0.143025 0.139337,-0.0059 0.297094,-0.01304 0.3506,-0.01584 0.160319,-0.0084 0.371579,0.01497 0.583915,0.06462 l 0.200382,0.04685 z"
             id="path43634-5-40-4" /></g><g
           style="fill:#000000"
           id="g37"
           transform="matrix(0.02245087,-0.42020222,0.3718035,0.00836889,100.44884,64.04001)" /></g></g></g><g
     inkscape:groupmode="layer"
     id="g22"
     inkscape:label="logo 2"
     transform="translate(-1570.3964,602.98303)"><g
       id="g21"
       transform="translate(1.75,39.625)"
       style="fill:url(#linearGradient23);fill-opacity:1"><text
         xml:space="preserve"
         style="font-style:normal;font-variant:normal;font-weight:bold;font-stretch:normal;font-family:'Grenze Gotisch';-inkscape-font-specification:'Grenze Gotisch Bold';fill:url(#linearGradient24);fill-opacity:1"
         x="1568.1664"
         y="-634.30402"
         id="text20"><tspan
           sodipodi:role="line"
           id="tspan20"
           x="1568.1664"
           y="-634.30402"
           style="fill:url(#linearGradient24);fill-opacity:1">Simple</tspan></text><text
         xml:space="preserve"
         style="font-style:normal;font-variant:normal;font-weight:bold;font-stretch:normal;font-family:'Grenze Gotisch';-inkscape-font-specification:'Grenze Gotisch Bold';fill:url(#linearGradient25);fill-opacity:1"
         x="1574.8416"
         y="-623.39899"
         id="text21"><tspan
           sodipodi:role="line"
           id="tspan21"
           x="1574.8416"
           y="-623.39899"
           style="fill:url(#linearGradient25);fill-opacity:1">Beginnings</tspan></text></g></g></svg>
